<svg width="99" height="40" viewBox="0 0 99 40" fill="none" xmlns="http://www.w3.org/2000/svg">
<rect width="99" height="40" rx="4" fill="#0469E3"/>
<path d="M27.4883 15.0059H30.4619C31.7516 15.0059 32.7246 15.1927 33.3809 15.5664C34.0371 15.9401 34.3652 16.585 34.3652 17.501C34.3652 17.8838 34.2969 18.2301 34.1602 18.54C34.028 18.8454 33.8343 19.0983 33.5791 19.2988C33.3239 19.4948 33.0094 19.627 32.6357 19.6953V19.7637C33.0231 19.832 33.3672 19.9528 33.668 20.126C33.9733 20.2992 34.2126 20.5475 34.3857 20.8711C34.5635 21.1947 34.6523 21.6139 34.6523 22.1289C34.6523 22.7396 34.5065 23.2591 34.2148 23.6875C33.9277 24.1159 33.5153 24.4417 32.9775 24.665C32.4443 24.8883 31.8109 25 31.0771 25H27.4883V15.0059ZM29.1289 19.1279H30.7012C31.444 19.1279 31.959 19.0072 32.2461 18.7656C32.5332 18.5241 32.6768 18.1709 32.6768 17.7061C32.6768 17.2321 32.5059 16.8903 32.1641 16.6807C31.8268 16.471 31.2891 16.3662 30.5508 16.3662H29.1289V19.1279ZM29.1289 20.4541V23.626H30.8584C31.624 23.626 32.1618 23.4779 32.4717 23.1816C32.7816 22.8854 32.9365 22.4844 32.9365 21.9785C32.9365 21.6686 32.8659 21.3997 32.7246 21.1719C32.5879 20.944 32.3623 20.7686 32.0479 20.6455C31.7334 20.5179 31.3096 20.4541 30.7764 20.4541H29.1289ZM43.1494 17.4326V25H41.8848L41.666 23.9814H41.5771C41.4176 24.2412 41.2148 24.4577 40.9688 24.6309C40.7227 24.7995 40.4492 24.9248 40.1484 25.0068C39.8477 25.0934 39.5309 25.1367 39.1982 25.1367C38.6286 25.1367 38.141 25.041 37.7354 24.8496C37.3343 24.6536 37.0267 24.3529 36.8125 23.9473C36.5983 23.5417 36.4912 23.0176 36.4912 22.375V17.4326H38.1045V22.0742C38.1045 22.6621 38.223 23.1019 38.46 23.3936C38.7015 23.6852 39.0752 23.8311 39.5811 23.8311C40.0687 23.8311 40.4561 23.7308 40.7432 23.5303C41.0303 23.3298 41.2331 23.0335 41.3516 22.6416C41.4746 22.2497 41.5361 21.7689 41.5361 21.1992V17.4326H43.1494ZM48.2695 23.8379C48.4792 23.8379 48.6865 23.8197 48.8916 23.7832C49.0967 23.7422 49.2835 23.6943 49.4521 23.6396V24.8564C49.2744 24.9339 49.0443 25 48.7617 25.0547C48.4792 25.1094 48.1852 25.1367 47.8799 25.1367C47.4515 25.1367 47.0664 25.0661 46.7246 24.9248C46.3828 24.779 46.1117 24.5306 45.9111 24.1797C45.7106 23.8288 45.6104 23.3434 45.6104 22.7236V18.6562H44.5781V17.9385L45.6855 17.3711L46.2119 15.751H47.2236V17.4326H49.3906V18.6562H47.2236V22.7031C47.2236 23.0859 47.3193 23.3708 47.5107 23.5576C47.7021 23.7445 47.9551 23.8379 48.2695 23.8379ZM53.8066 23.8379C54.0163 23.8379 54.2236 23.8197 54.4287 23.7832C54.6338 23.7422 54.8206 23.6943 54.9893 23.6396V24.8564C54.8115 24.9339 54.5814 25 54.2988 25.0547C54.0163 25.1094 53.7223 25.1367 53.417 25.1367C52.9886 25.1367 52.6035 25.0661 52.2617 24.9248C51.9199 24.779 51.6488 24.5306 51.4482 24.1797C51.2477 23.8288 51.1475 23.3434 51.1475 22.7236V18.6562H50.1152V17.9385L51.2227 17.3711L51.749 15.751H52.7607V17.4326H54.9277V18.6562H52.7607V22.7031C52.7607 23.0859 52.8564 23.3708 53.0479 23.5576C53.2393 23.7445 53.4922 23.8379 53.8066 23.8379ZM63.2266 21.1992C63.2266 21.8281 63.1445 22.3864 62.9805 22.874C62.8164 23.3617 62.5771 23.7741 62.2627 24.1113C61.9482 24.444 61.57 24.6992 61.1279 24.877C60.6859 25.0501 60.1868 25.1367 59.6309 25.1367C59.1113 25.1367 58.6351 25.0501 58.2021 24.877C57.7692 24.6992 57.3932 24.444 57.0742 24.1113C56.7598 23.7741 56.516 23.3617 56.3428 22.874C56.1696 22.3864 56.083 21.8281 56.083 21.1992C56.083 20.3652 56.2266 19.6589 56.5137 19.0801C56.8053 18.4967 57.2201 18.0524 57.7578 17.7471C58.2956 17.4417 58.9359 17.2891 59.6787 17.2891C60.376 17.2891 60.9912 17.4417 61.5244 17.7471C62.0576 18.0524 62.4746 18.4967 62.7754 19.0801C63.0762 19.6634 63.2266 20.3698 63.2266 21.1992ZM57.7373 21.1992C57.7373 21.7507 57.8034 22.2223 57.9355 22.6143C58.0723 23.0062 58.2819 23.307 58.5645 23.5166C58.847 23.7217 59.2116 23.8242 59.6582 23.8242C60.1048 23.8242 60.4694 23.7217 60.752 23.5166C61.0345 23.307 61.2419 23.0062 61.374 22.6143C61.5062 22.2223 61.5723 21.7507 61.5723 21.1992C61.5723 20.6478 61.5062 20.1807 61.374 19.7979C61.2419 19.4105 61.0345 19.1165 60.752 18.916C60.4694 18.7109 60.1025 18.6084 59.6514 18.6084C58.986 18.6084 58.5007 18.8317 58.1953 19.2783C57.89 19.7249 57.7373 20.3652 57.7373 21.1992ZM69.0166 17.2891C69.8688 17.2891 70.5319 17.5101 71.0059 17.9521C71.4844 18.3896 71.7236 19.0938 71.7236 20.0645V25H70.1172V20.3652C70.1172 19.7773 69.9964 19.3376 69.7549 19.0459C69.5133 18.7497 69.1396 18.6016 68.6338 18.6016C67.9001 18.6016 67.3896 18.8271 67.1025 19.2783C66.82 19.7295 66.6787 20.3835 66.6787 21.2402V25H65.0723V17.4326H66.3232L66.5488 18.458H66.6377C66.8018 18.1937 67.0046 17.9772 67.2461 17.8086C67.4922 17.6354 67.7656 17.5055 68.0664 17.4189C68.3717 17.3324 68.6885 17.2891 69.0166 17.2891Z" fill="white"/>
</svg>
