<svg width="82" height="20" viewBox="0 0 82 20" fill="none" xmlns="http://www.w3.org/2000/svg">
<rect width="20" height="20" rx="4" fill="#0469E3"/>
<g clip-path="url(#clip0_440_6573)">
<path d="M8.78791 14C8.63595 13.9999 8.486 13.9652 8.34946 13.8985C8.21291 13.8318 8.09337 13.7348 7.99991 13.615L5.71191 10.615C5.62662 10.512 5.56286 10.3929 5.5244 10.2648C5.48595 10.1367 5.47358 10.0022 5.48803 9.86923C5.50249 9.73627 5.54347 9.60755 5.60855 9.49071C5.67363 9.37386 5.76148 9.27126 5.86692 9.18897C5.97236 9.10668 6.09323 9.04638 6.22239 9.01163C6.35155 8.97688 6.48636 8.9684 6.61885 8.98668C6.75135 9.00496 6.87883 9.04963 6.99375 9.11805C7.10867 9.18647 7.2087 9.27725 7.28791 9.38502L8.78791 11.376L12.7119 6.38502C12.7911 6.27725 12.8912 6.18647 13.0061 6.11805C13.121 6.04963 13.2485 6.00496 13.381 5.98668C13.5135 5.9684 13.6483 5.97688 13.7774 6.01163C13.9066 6.04638 14.0275 6.10668 14.1329 6.18897C14.2383 6.27126 14.3262 6.37386 14.3913 6.49071C14.4564 6.60755 14.4973 6.73627 14.5118 6.86923C14.5262 7.0022 14.5139 7.13671 14.4754 7.26481C14.437 7.39291 14.3732 7.512 14.2879 7.61502L9.57591 13.615C9.48245 13.7348 9.36291 13.8318 9.22637 13.8985C9.08983 13.9652 8.93988 13.9999 8.78791 14Z" fill="#FDFDFD"/>
</g>
<rect x="32" y="7" width="50" height="6" rx="3" fill="#A2A2A2"/>
<defs>
<clipPath id="clip0_440_6573">
<rect width="10" height="10" fill="white" transform="translate(5 5)"/>
</clipPath>
</defs>
</svg>
