<svg width="175" height="51" viewBox="0 0 175 51" fill="none" xmlns="http://www.w3.org/2000/svg">
<rect x="0.5" y="21.5" width="174" height="29" rx="2.5" fill="white" stroke="#D0D0D0"/>
<path d="M154.006 37.0063C153.95 37.0064 153.894 36.9967 153.842 36.9778C153.79 36.959 153.743 36.9313 153.703 36.8964L151.127 34.6429C151.049 34.572 151.006 34.4772 151.007 34.3787C151.008 34.2802 151.053 34.186 151.133 34.1164C151.212 34.0467 151.32 34.0072 151.432 34.0064C151.545 34.0055 151.653 34.0434 151.734 34.1118L154.006 36.0997L156.278 34.1118C156.359 34.0434 156.468 34.0055 156.58 34.0064C156.693 34.0072 156.8 34.0467 156.88 34.1164C156.96 34.186 157.005 34.2802 157.006 34.3787C157.007 34.4772 156.963 34.572 156.885 34.6429L154.31 36.8964C154.229 36.9668 154.12 37.0063 154.006 37.0063Z" fill="black"/>
<path d="M17.5645 38.8623C17.5645 39.3278 17.4499 39.7288 17.2207 40.0654C16.9951 40.402 16.6693 40.6598 16.2432 40.8389C15.8206 41.0179 15.3158 41.1074 14.7285 41.1074C14.4421 41.1074 14.1681 41.0913 13.9067 41.0591C13.6453 41.0269 13.3983 40.9803 13.1655 40.9194C12.9364 40.855 12.7269 40.778 12.5371 40.6885V39.4746C12.8558 39.6143 13.2121 39.7414 13.606 39.856C13.9998 39.967 14.4009 40.0225 14.8091 40.0225C15.1421 40.0225 15.4178 39.9795 15.6362 39.8936C15.8582 39.804 16.0229 39.6787 16.1304 39.5176C16.2378 39.3529 16.2915 39.1613 16.2915 38.9429C16.2915 38.7101 16.2288 38.5132 16.1035 38.3521C15.9782 38.1909 15.7884 38.0441 15.5342 37.9116C15.2835 37.7756 14.9684 37.6305 14.5889 37.4766C14.3311 37.3727 14.084 37.2546 13.8477 37.1221C13.6149 36.9896 13.4072 36.8338 13.2246 36.6548C13.042 36.4757 12.897 36.2645 12.7896 36.021C12.6857 35.7739 12.6338 35.4839 12.6338 35.1509C12.6338 34.7069 12.7394 34.3273 12.9507 34.0122C13.1655 33.6971 13.4663 33.4554 13.853 33.2871C14.2433 33.1188 14.6981 33.0347 15.2173 33.0347C15.6291 33.0347 16.0158 33.0776 16.3774 33.1636C16.7427 33.2495 17.1007 33.3713 17.4517 33.5288L17.0435 34.5654C16.7212 34.4329 16.4079 34.3273 16.1035 34.2485C15.8027 34.1698 15.4948 34.1304 15.1797 34.1304C14.9076 34.1304 14.6766 34.1715 14.4868 34.2539C14.297 34.3363 14.152 34.4526 14.0518 34.603C13.9551 34.7498 13.9067 34.9253 13.9067 35.1294C13.9067 35.3586 13.9622 35.5519 14.0732 35.7095C14.1878 35.8634 14.3633 36.0049 14.5996 36.1338C14.8395 36.2627 15.1475 36.4059 15.5234 36.5635C15.9567 36.7425 16.3237 36.9305 16.6245 37.1274C16.9289 37.3244 17.1616 37.5607 17.3228 37.8364C17.4839 38.1086 17.5645 38.4505 17.5645 38.8623ZM21.3188 34.9414C21.8488 34.9414 22.3035 35.0506 22.6831 35.269C23.0627 35.4875 23.3545 35.7972 23.5586 36.1982C23.7627 36.5993 23.8647 37.0791 23.8647 37.6377V38.3145H19.8955C19.9098 38.891 20.0638 39.335 20.3574 39.6465C20.6546 39.958 21.07 40.1138 21.6035 40.1138C21.9831 40.1138 22.3232 40.078 22.624 40.0063C22.9284 39.9312 23.2417 39.8219 23.564 39.6787V40.7046C23.2668 40.8442 22.9642 40.9463 22.6562 41.0107C22.3483 41.0752 21.9795 41.1074 21.5498 41.1074C20.9661 41.1074 20.4523 40.9946 20.0083 40.769C19.5679 40.5399 19.2223 40.1997 18.9717 39.7485C18.7246 39.2974 18.6011 38.737 18.6011 38.0674C18.6011 37.4014 18.7139 36.8356 18.9395 36.3701C19.165 35.9046 19.4819 35.5501 19.8901 35.3066C20.2983 35.0632 20.7746 34.9414 21.3188 34.9414ZM21.3188 35.8921C20.9214 35.8921 20.5991 36.021 20.3521 36.2788C20.1086 36.5366 19.9653 36.9144 19.9224 37.4121H22.6294C22.6258 37.1149 22.5757 36.8517 22.479 36.6226C22.3859 36.3934 22.2427 36.2144 22.0493 36.0854C21.8595 35.9565 21.616 35.8921 21.3188 35.8921ZM26.5557 41H25.2881V32.6426H26.5557V41ZM30.729 34.9414C31.259 34.9414 31.7137 35.0506 32.0933 35.269C32.4728 35.4875 32.7646 35.7972 32.9688 36.1982C33.1729 36.5993 33.2749 37.0791 33.2749 37.6377V38.3145H29.3057C29.32 38.891 29.474 39.335 29.7676 39.6465C30.0648 39.958 30.4801 40.1138 31.0137 40.1138C31.3932 40.1138 31.7334 40.078 32.0342 40.0063C32.3385 39.9312 32.6519 39.8219 32.9741 39.6787V40.7046C32.6769 40.8442 32.3743 40.9463 32.0664 41.0107C31.7585 41.0752 31.3896 41.1074 30.96 41.1074C30.3763 41.1074 29.8625 40.9946 29.4185 40.769C28.978 40.5399 28.6325 40.1997 28.3818 39.7485C28.1348 39.2974 28.0112 38.737 28.0112 38.0674C28.0112 37.4014 28.124 36.8356 28.3496 36.3701C28.5752 35.9046 28.8921 35.5501 29.3003 35.3066C29.7085 35.0632 30.1847 34.9414 30.729 34.9414ZM30.729 35.8921C30.3315 35.8921 30.0093 36.021 29.7622 36.2788C29.5187 36.5366 29.3755 36.9144 29.3325 37.4121H32.0396C32.036 37.1149 31.9858 36.8517 31.8892 36.6226C31.7961 36.3934 31.6528 36.2144 31.4595 36.0854C31.2697 35.9565 31.0262 35.8921 30.729 35.8921ZM37.0938 41.1074C36.5316 41.1074 36.0446 40.9982 35.6328 40.7798C35.221 40.5614 34.9041 40.2266 34.6821 39.7754C34.4601 39.3242 34.3491 38.7513 34.3491 38.0566C34.3491 37.3333 34.4709 36.7425 34.7144 36.2842C34.9578 35.8258 35.2944 35.4875 35.7241 35.269C36.1574 35.0506 36.6533 34.9414 37.2119 34.9414C37.5664 34.9414 37.8869 34.9772 38.1733 35.0488C38.4634 35.1169 38.7087 35.201 38.9092 35.3013L38.5332 36.311C38.3148 36.2215 38.091 36.1463 37.8618 36.0854C37.6326 36.0246 37.4124 35.9941 37.2012 35.9941C36.8538 35.9941 36.5638 36.0711 36.3311 36.2251C36.1019 36.3791 35.93 36.6082 35.8154 36.9126C35.7044 37.217 35.6489 37.5947 35.6489 38.0459C35.6489 38.4827 35.7062 38.8516 35.8208 39.1523C35.9354 39.4495 36.1055 39.6751 36.3311 39.8291C36.5566 39.9795 36.8341 40.0547 37.1636 40.0547C37.4894 40.0547 37.7812 40.0153 38.0391 39.9365C38.2969 39.8577 38.5404 39.7557 38.7695 39.6304V40.7261C38.5439 40.855 38.3022 40.9499 38.0444 41.0107C37.7866 41.0752 37.4697 41.1074 37.0938 41.1074ZM42.3789 40.0869C42.5436 40.0869 42.7065 40.0726 42.8677 40.0439C43.0288 40.0117 43.1756 39.9741 43.3081 39.9312V40.8872C43.1685 40.9481 42.9876 41 42.7656 41.043C42.5436 41.0859 42.3127 41.1074 42.0728 41.1074C41.7362 41.1074 41.4336 41.0519 41.165 40.9409C40.8965 40.8263 40.6834 40.6312 40.5259 40.3555C40.3683 40.0798 40.2896 39.6984 40.2896 39.2114V36.0156H39.4785V35.4517L40.3486 35.0059L40.7622 33.7329H41.5571V35.0542H43.2598V36.0156H41.5571V39.1953C41.5571 39.4961 41.6323 39.7199 41.7827 39.8667C41.9331 40.0135 42.1318 40.0869 42.3789 40.0869Z" fill="#525252"/>
<path d="M3.125 13V4.43359H4.53125V11.8047H8.16992V13H3.125ZM12.0547 6.39062C12.875 6.39062 13.4941 6.57227 13.9121 6.93555C14.334 7.29883 14.5449 7.86523 14.5449 8.63477V13H13.5664L13.3027 12.0801H13.2559C13.0723 12.3145 12.8828 12.5078 12.6875 12.6602C12.4922 12.8125 12.2656 12.9258 12.0078 13C11.7539 13.0781 11.4434 13.1172 11.0762 13.1172C10.6895 13.1172 10.3438 13.0469 10.0391 12.9062C9.73438 12.7617 9.49414 12.543 9.31836 12.25C9.14258 11.957 9.05469 11.5859 9.05469 11.1367C9.05469 10.4688 9.30273 9.9668 9.79883 9.63086C10.2988 9.29492 11.0527 9.10938 12.0605 9.07422L13.1855 9.0332V8.69336C13.1855 8.24414 13.0801 7.92383 12.8691 7.73242C12.6621 7.54102 12.3691 7.44531 11.9902 7.44531C11.666 7.44531 11.3516 7.49219 11.0469 7.58594C10.7422 7.67969 10.4453 7.79492 10.1562 7.93164L9.71094 6.95898C10.0273 6.79102 10.3867 6.6543 10.7891 6.54883C11.1953 6.44336 11.6172 6.39062 12.0547 6.39062ZM13.1797 9.90039L12.3418 9.92969C11.6543 9.95312 11.1719 10.0703 10.8945 10.2812C10.6172 10.4922 10.4785 10.7812 10.4785 11.1484C10.4785 11.4688 10.5742 11.7031 10.7656 11.8516C10.957 11.9961 11.209 12.0684 11.5215 12.0684C11.998 12.0684 12.3926 11.9336 12.7051 11.6641C13.0215 11.3906 13.1797 10.9902 13.1797 10.4629V9.90039ZM17.8496 3.88281V6.08008C17.8496 6.33398 17.8418 6.58398 17.8262 6.83008C17.8145 7.07227 17.8027 7.26172 17.791 7.39844H17.8496C18.0254 7.11719 18.2695 6.88086 18.582 6.68945C18.8984 6.49414 19.3027 6.39648 19.7949 6.39648C20.5645 6.39648 21.1836 6.67969 21.6523 7.24609C22.1211 7.80859 22.3555 8.64258 22.3555 9.74805C22.3555 10.4824 22.248 11.0996 22.0332 11.5996C21.8184 12.0996 21.5156 12.4785 21.125 12.7363C20.7383 12.9902 20.2832 13.1172 19.7598 13.1172C19.2676 13.1172 18.8691 13.0273 18.5645 12.8477C18.2637 12.6641 18.0273 12.4512 17.8555 12.209H17.7559L17.5039 13H16.4727V3.88281H17.8496ZM19.4316 7.51562C19.041 7.51562 18.7305 7.59375 18.5 7.75C18.2734 7.90625 18.1094 8.14062 18.0078 8.45312C17.9062 8.76172 17.8535 9.1543 17.8496 9.63086V9.75391C17.8496 10.4766 17.9629 11.0293 18.1895 11.4121C18.4199 11.7949 18.8379 11.9863 19.4434 11.9863C19.9238 11.9863 20.293 11.793 20.5508 11.4062C20.8086 11.0156 20.9375 10.457 20.9375 9.73047C20.9375 8.99609 20.8086 8.44336 20.5508 8.07227C20.2969 7.70117 19.9238 7.51562 19.4316 7.51562ZM26.5332 6.39062C27.1113 6.39062 27.6074 6.50977 28.0215 6.74805C28.4355 6.98633 28.7539 7.32422 28.9766 7.76172C29.1992 8.19922 29.3105 8.72266 29.3105 9.33203V10.0703H24.9805C24.9961 10.6992 25.1641 11.1836 25.4844 11.5234C25.8086 11.8633 26.2617 12.0332 26.8438 12.0332C27.2578 12.0332 27.6289 11.9941 27.957 11.916C28.2891 11.834 28.6309 11.7148 28.9824 11.5586V12.6777C28.6582 12.8301 28.3281 12.9414 27.9922 13.0117C27.6562 13.082 27.2539 13.1172 26.7852 13.1172C26.1484 13.1172 25.5879 12.9941 25.1035 12.748C24.623 12.498 24.2461 12.127 23.9727 11.6348C23.7031 11.1426 23.5684 10.5312 23.5684 9.80078C23.5684 9.07422 23.6914 8.45703 23.9375 7.94922C24.1836 7.44141 24.5293 7.05469 24.9746 6.78906C25.4199 6.52344 25.9395 6.39062 26.5332 6.39062ZM26.5332 7.42773C26.0996 7.42773 25.748 7.56836 25.4785 7.84961C25.2129 8.13086 25.0566 8.54297 25.0098 9.08594H27.9629C27.959 8.76172 27.9043 8.47461 27.7988 8.22461C27.6973 7.97461 27.541 7.7793 27.3301 7.63867C27.123 7.49805 26.8574 7.42773 26.5332 7.42773ZM32.2461 13H30.8633V3.88281H32.2461V13Z" fill="#525252"/>
</svg>
