<svg width="175" height="51" viewBox="0 0 175 51" fill="none" xmlns="http://www.w3.org/2000/svg">
<rect x="0.5" y="21.5" width="174" height="29" rx="2.5" fill="white" stroke="#D0D0D0"/>
<path d="M13.0312 41V33.1475H14.3203V39.9043H17.6558V41H13.0312ZM21.2168 34.9414C21.9688 34.9414 22.5363 35.1079 22.9194 35.4409C23.3062 35.7739 23.4995 36.2931 23.4995 36.9985V41H22.6025L22.3608 40.1567H22.3179C22.1496 40.3716 21.9759 40.5488 21.7969 40.6885C21.6178 40.8281 21.4102 40.932 21.1738 41C20.9411 41.0716 20.6564 41.1074 20.3198 41.1074C19.9653 41.1074 19.6484 41.043 19.3691 40.9141C19.0898 40.7816 18.8696 40.5811 18.7085 40.3125C18.5474 40.0439 18.4668 39.7038 18.4668 39.292C18.4668 38.6797 18.6942 38.2196 19.1489 37.9116C19.6073 37.6037 20.2983 37.4336 21.2222 37.4014L22.2534 37.3638V37.0522C22.2534 36.6405 22.1567 36.3468 21.9634 36.1714C21.7736 35.9959 21.505 35.9082 21.1577 35.9082C20.8605 35.9082 20.5723 35.9512 20.293 36.0371C20.0137 36.123 19.7415 36.2287 19.4766 36.354L19.0684 35.4624C19.3584 35.3084 19.6878 35.1831 20.0566 35.0864C20.429 34.9897 20.8158 34.9414 21.2168 34.9414ZM22.248 38.1587L21.48 38.1855C20.8498 38.207 20.4076 38.3145 20.1533 38.5078C19.8991 38.7012 19.772 38.9661 19.772 39.3027C19.772 39.5964 19.8597 39.8112 20.0352 39.9473C20.2106 40.0798 20.4416 40.146 20.728 40.146C21.1649 40.146 21.5265 40.0225 21.813 39.7754C22.103 39.5247 22.248 39.1577 22.248 38.6743V38.1587ZM26.5288 32.6426V34.6567C26.5288 34.8895 26.5216 35.1187 26.5073 35.3442C26.4966 35.5662 26.4858 35.7399 26.4751 35.8652H26.5288C26.6899 35.6074 26.9137 35.3908 27.2002 35.2153C27.4902 35.0363 27.8608 34.9468 28.312 34.9468C29.0174 34.9468 29.585 35.2064 30.0146 35.7256C30.4443 36.2412 30.6592 37.0057 30.6592 38.019C30.6592 38.6922 30.5607 39.258 30.3638 39.7163C30.1668 40.1746 29.8893 40.522 29.5312 40.7583C29.1768 40.991 28.7596 41.1074 28.2798 41.1074C27.8286 41.1074 27.4634 41.0251 27.1841 40.8604C26.9084 40.6921 26.6917 40.4969 26.5342 40.2749H26.4429L26.2119 41H25.2666V32.6426H26.5288ZM27.979 35.9727C27.6209 35.9727 27.3363 36.0443 27.125 36.1875C26.9173 36.3307 26.7669 36.5456 26.6738 36.832C26.5807 37.1149 26.5324 37.4748 26.5288 37.9116V38.0244C26.5288 38.6868 26.6326 39.1935 26.8403 39.5444C27.0516 39.8953 27.4347 40.0708 27.9897 40.0708C28.4302 40.0708 28.7686 39.8936 29.0049 39.5391C29.2412 39.181 29.3594 38.6689 29.3594 38.0029C29.3594 37.3298 29.2412 36.8231 29.0049 36.4829C28.7721 36.1427 28.4302 35.9727 27.979 35.9727ZM34.4888 34.9414C35.0187 34.9414 35.4735 35.0506 35.853 35.269C36.2326 35.4875 36.5244 35.7972 36.7285 36.1982C36.9326 36.5993 37.0347 37.0791 37.0347 37.6377V38.3145H33.0654C33.0798 38.891 33.2337 39.335 33.5273 39.6465C33.8245 39.958 34.2399 40.1138 34.7734 40.1138C35.153 40.1138 35.4932 40.078 35.7939 40.0063C36.0983 39.9312 36.4116 39.8219 36.7339 39.6787V40.7046C36.4367 40.8442 36.1341 40.9463 35.8262 41.0107C35.5182 41.0752 35.1494 41.1074 34.7197 41.1074C34.1361 41.1074 33.6222 40.9946 33.1782 40.769C32.7378 40.5399 32.3923 40.1997 32.1416 39.7485C31.8945 39.2974 31.771 38.737 31.771 38.0674C31.771 37.4014 31.8838 36.8356 32.1094 36.3701C32.335 35.9046 32.6519 35.5501 33.0601 35.3066C33.4683 35.0632 33.9445 34.9414 34.4888 34.9414ZM34.4888 35.8921C34.0913 35.8921 33.769 36.021 33.522 36.2788C33.2785 36.5366 33.1353 36.9144 33.0923 37.4121H35.7993C35.7957 37.1149 35.7456 36.8517 35.6489 36.6226C35.5558 36.3934 35.4126 36.2144 35.2192 36.0854C35.0295 35.9565 34.786 35.8921 34.4888 35.8921ZM39.7256 41H38.458V32.6426H39.7256V41Z" fill="#525252"/>
<path d="M3.125 13V4.43359H4.53125V11.8047H8.16992V13H3.125ZM12.0547 6.39062C12.875 6.39062 13.4941 6.57227 13.9121 6.93555C14.334 7.29883 14.5449 7.86523 14.5449 8.63477V13H13.5664L13.3027 12.0801H13.2559C13.0723 12.3145 12.8828 12.5078 12.6875 12.6602C12.4922 12.8125 12.2656 12.9258 12.0078 13C11.7539 13.0781 11.4434 13.1172 11.0762 13.1172C10.6895 13.1172 10.3438 13.0469 10.0391 12.9062C9.73438 12.7617 9.49414 12.543 9.31836 12.25C9.14258 11.957 9.05469 11.5859 9.05469 11.1367C9.05469 10.4688 9.30273 9.9668 9.79883 9.63086C10.2988 9.29492 11.0527 9.10938 12.0605 9.07422L13.1855 9.0332V8.69336C13.1855 8.24414 13.0801 7.92383 12.8691 7.73242C12.6621 7.54102 12.3691 7.44531 11.9902 7.44531C11.666 7.44531 11.3516 7.49219 11.0469 7.58594C10.7422 7.67969 10.4453 7.79492 10.1562 7.93164L9.71094 6.95898C10.0273 6.79102 10.3867 6.6543 10.7891 6.54883C11.1953 6.44336 11.6172 6.39062 12.0547 6.39062ZM13.1797 9.90039L12.3418 9.92969C11.6543 9.95312 11.1719 10.0703 10.8945 10.2812C10.6172 10.4922 10.4785 10.7812 10.4785 11.1484C10.4785 11.4688 10.5742 11.7031 10.7656 11.8516C10.957 11.9961 11.209 12.0684 11.5215 12.0684C11.998 12.0684 12.3926 11.9336 12.7051 11.6641C13.0215 11.3906 13.1797 10.9902 13.1797 10.4629V9.90039ZM17.8496 3.88281V6.08008C17.8496 6.33398 17.8418 6.58398 17.8262 6.83008C17.8145 7.07227 17.8027 7.26172 17.791 7.39844H17.8496C18.0254 7.11719 18.2695 6.88086 18.582 6.68945C18.8984 6.49414 19.3027 6.39648 19.7949 6.39648C20.5645 6.39648 21.1836 6.67969 21.6523 7.24609C22.1211 7.80859 22.3555 8.64258 22.3555 9.74805C22.3555 10.4824 22.248 11.0996 22.0332 11.5996C21.8184 12.0996 21.5156 12.4785 21.125 12.7363C20.7383 12.9902 20.2832 13.1172 19.7598 13.1172C19.2676 13.1172 18.8691 13.0273 18.5645 12.8477C18.2637 12.6641 18.0273 12.4512 17.8555 12.209H17.7559L17.5039 13H16.4727V3.88281H17.8496ZM19.4316 7.51562C19.041 7.51562 18.7305 7.59375 18.5 7.75C18.2734 7.90625 18.1094 8.14062 18.0078 8.45312C17.9062 8.76172 17.8535 9.1543 17.8496 9.63086V9.75391C17.8496 10.4766 17.9629 11.0293 18.1895 11.4121C18.4199 11.7949 18.8379 11.9863 19.4434 11.9863C19.9238 11.9863 20.293 11.793 20.5508 11.4062C20.8086 11.0156 20.9375 10.457 20.9375 9.73047C20.9375 8.99609 20.8086 8.44336 20.5508 8.07227C20.2969 7.70117 19.9238 7.51562 19.4316 7.51562ZM26.5332 6.39062C27.1113 6.39062 27.6074 6.50977 28.0215 6.74805C28.4355 6.98633 28.7539 7.32422 28.9766 7.76172C29.1992 8.19922 29.3105 8.72266 29.3105 9.33203V10.0703H24.9805C24.9961 10.6992 25.1641 11.1836 25.4844 11.5234C25.8086 11.8633 26.2617 12.0332 26.8438 12.0332C27.2578 12.0332 27.6289 11.9941 27.957 11.916C28.2891 11.834 28.6309 11.7148 28.9824 11.5586V12.6777C28.6582 12.8301 28.3281 12.9414 27.9922 13.0117C27.6562 13.082 27.2539 13.1172 26.7852 13.1172C26.1484 13.1172 25.5879 12.9941 25.1035 12.748C24.623 12.498 24.2461 12.127 23.9727 11.6348C23.7031 11.1426 23.5684 10.5312 23.5684 9.80078C23.5684 9.07422 23.6914 8.45703 23.9375 7.94922C24.1836 7.44141 24.5293 7.05469 24.9746 6.78906C25.4199 6.52344 25.9395 6.39062 26.5332 6.39062ZM26.5332 7.42773C26.0996 7.42773 25.748 7.56836 25.4785 7.84961C25.2129 8.13086 25.0566 8.54297 25.0098 9.08594H27.9629C27.959 8.76172 27.9043 8.47461 27.7988 8.22461C27.6973 7.97461 27.541 7.7793 27.3301 7.63867C27.123 7.49805 26.8574 7.42773 26.5332 7.42773ZM32.2461 13H30.8633V3.88281H32.2461V13Z" fill="#525252"/>
</svg>
