<svg width="195" height="111" viewBox="0 0 195 111" fill="none" xmlns="http://www.w3.org/2000/svg">
<g filter="url(#filter0_d_440_6593)">
<rect x="10" y="6" width="175" height="91" rx="3" fill="white"/>
<rect x="10.5" y="6.5" width="174" height="90" rx="2.5" stroke="#D0D0D0"/>
</g>
<path d="M26.7544 31H25.46V24.2432H23.1611V23.1475H29.0479V24.2432H26.7544V31ZM31.3843 25.0542V31H30.1221V25.0542H31.3843ZM30.7612 22.7769C30.9546 22.7769 31.1211 22.8288 31.2607 22.9326C31.404 23.0365 31.4756 23.2155 31.4756 23.4697C31.4756 23.7204 31.404 23.8994 31.2607 24.0068C31.1211 24.1107 30.9546 24.1626 30.7612 24.1626C30.5607 24.1626 30.3906 24.1107 30.251 24.0068C30.1149 23.8994 30.0469 23.7204 30.0469 23.4697C30.0469 23.2155 30.1149 23.0365 30.251 22.9326C30.3906 22.8288 30.5607 22.7769 30.7612 22.7769ZM35.4072 30.0869C35.5719 30.0869 35.7349 30.0726 35.896 30.0439C36.0571 30.0117 36.2039 29.9741 36.3364 29.9312V30.8872C36.1968 30.9481 36.016 31 35.7939 31.043C35.5719 31.0859 35.341 31.1074 35.1011 31.1074C34.7645 31.1074 34.4619 31.0519 34.1934 30.9409C33.9248 30.8263 33.7118 30.6312 33.5542 30.3555C33.3966 30.0798 33.3179 29.6984 33.3179 29.2114V26.0156H32.5068V25.4517L33.377 25.0059L33.7905 23.7329H34.5854V25.0542H36.2881V26.0156H34.5854V29.1953C34.5854 29.4961 34.6606 29.7199 34.811 29.8667C34.9614 30.0135 35.1602 30.0869 35.4072 30.0869ZM38.8125 31H37.5449V22.6426H38.8125V31ZM42.9858 24.9414C43.5158 24.9414 43.9705 25.0506 44.3501 25.269C44.7297 25.4875 45.0215 25.7972 45.2256 26.1982C45.4297 26.5993 45.5317 27.0791 45.5317 27.6377V28.3145H41.5625C41.5768 28.891 41.7308 29.335 42.0244 29.6465C42.3216 29.958 42.737 30.1138 43.2705 30.1138C43.6501 30.1138 43.9902 30.078 44.291 30.0063C44.5954 29.9312 44.9087 29.8219 45.231 29.6787V30.7046C44.9338 30.8442 44.6312 30.9463 44.3232 31.0107C44.0153 31.0752 43.6465 31.1074 43.2168 31.1074C42.6331 31.1074 42.1193 30.9946 41.6753 30.769C41.2349 30.5399 40.8893 30.1997 40.6387 29.7485C40.3916 29.2974 40.2681 28.737 40.2681 28.0674C40.2681 27.4014 40.3809 26.8356 40.6064 26.3701C40.832 25.9046 41.1489 25.5501 41.5571 25.3066C41.9653 25.0632 42.4416 24.9414 42.9858 24.9414ZM42.9858 25.8921C42.5884 25.8921 42.2661 26.021 42.019 26.2788C41.7756 26.5366 41.6323 26.9144 41.5894 27.4121H44.2964C44.2928 27.1149 44.2427 26.8517 44.146 26.6226C44.0529 26.3934 43.9097 26.2144 43.7163 26.0854C43.5265 25.9565 43.283 25.8921 42.9858 25.8921Z" fill="#525252"/>
<rect x="23" y="40" width="90" height="6" rx="3" fill="#EAEAEA"/>
<rect x="23" y="51" width="70" height="6" rx="3" fill="#EAEAEA"/>
<rect x="97.5" y="71.5" width="34" height="12" rx="6" fill="white" stroke="#D9D9D9"/>
<rect x="137.5" y="71.5" width="34" height="12" rx="6" fill="#0469E3" stroke="#0469E3"/>
<defs>
<filter id="filter0_d_440_6593" x="0" y="0" width="195" height="111" filterUnits="userSpaceOnUse" color-interpolation-filters="sRGB">
<feFlood flood-opacity="0" result="BackgroundImageFix"/>
<feColorMatrix in="SourceAlpha" type="matrix" values="0 0 0 0 0 0 0 0 0 0 0 0 0 0 0 0 0 0 127 0" result="hardAlpha"/>
<feOffset dy="4"/>
<feGaussianBlur stdDeviation="5"/>
<feComposite in2="hardAlpha" operator="out"/>
<feColorMatrix type="matrix" values="0 0 0 0 0 0 0 0 0 0 0 0 0 0 0 0 0 0 0.1 0"/>
<feBlend mode="normal" in2="BackgroundImageFix" result="effect1_dropShadow_440_6593"/>
<feBlend mode="normal" in="SourceGraphic" in2="effect1_dropShadow_440_6593" result="shape"/>
</filter>
</defs>
</svg>
