<svg width="246" height="178" viewBox="0 0 246 178" fill="none" xmlns="http://www.w3.org/2000/svg">
<path d="M0 5.41382C0 2.65239 2.23858 0.413818 5 0.413818H240.238C243 0.413818 245.238 2.65239 245.238 5.41382V178H0V5.41382Z" fill="white"/>
<path d="M0 5.41382C0 2.65239 2.23858 0.413818 5 0.413818H240.238C243 0.413818 245.238 2.65239 245.238 5.41382V35.4478H0V5.41382Z" fill="#D9D9D9"/>
<circle cx="14.4968" cy="17.3268" r="4.83228" fill="#FF6868"/>
<circle cx="28.9934" cy="17.3268" r="4.83228" fill="#FFD029"/>
<circle cx="43.4905" cy="17.3268" r="4.83228" fill="#7ED360"/>
<rect x="73.6924" y="51.1527" width="30.2017" height="7.24842" rx="3.62421" fill="#0469E3"/>
<rect x="113.559" y="51.1527" width="30.2017" height="7.24842" rx="3.62421" fill="#A2A2A2"/>
<rect x="153.425" y="51.1527" width="30.2017" height="7.24842" rx="3.62421" fill="#A2A2A2"/>
<rect x="193.291" y="51.1527" width="30.2017" height="7.24842" rx="3.62421" fill="#A2A2A2"/>
</svg>
